<?xml version="1.0" encoding="iso-8859-1"?>
<!-- Generator: Adobe Illustrator 19.0.0, SVG Export Plug-In . SVG Version: 6.00 Build 0)  -->
<svg version="1.1" id="Capa_1" xmlns="http://www.w3.org/2000/svg" xmlns:xlink="http://www.w3.org/1999/xlink" x="0px" y="0px"
	 viewBox="0 0 512.001 512.001" style="enable-background:new 0 0 512.001 512.001;" xml:space="preserve">
<circle style="fill:#505E93;" cx="256" cy="256.001" r="256"/>
<path style="fill:#FDD36E;" d="M454.626,370.622c-6.579-24.556-24.031-44.863-47.603-55.218
	c-13.449-5.905-23.662-17.36-27.465-31.548l-15.741-58.746l-54.071,14.488l15.741,58.746c3.8,14.188,0.683,29.215-8.012,41.053
	c-15.237,20.753-20.196,47.066-13.617,71.622l24.291,90.654c55.341-16.227,102.904-50.635,135.781-96.328L454.626,370.622z"/>
<path style="fill:#FBB659;" d="M338.672,351.884c2.213-4.483,4.831-8.787,7.725-12.725c8.695-11.838,11.812-26.866,8.012-41.053
	l-17.618-65.753l-27.026,7.242l15.741,58.746c3.8,14.188,0.683,29.215-8.012,41.053c-15.22,20.73-20.211,47.009-13.616,71.622
	c9.807,36.455,17.803,66.257,24.335,90.64c12.649-3.713,21.201-7.322,26.04-9.214C325.793,388.108,324.796,379.97,338.672,351.884z"
	/>
<rect x="295.196" y="160.693" transform="matrix(0.9659 -0.2588 0.2588 0.9659 -35.9664 89.8246)" style="fill:#FA6487;" width="55.958" height="41.643"/>
<rect x="295.653" y="164.308" transform="matrix(-0.9659 0.2588 -0.2588 -0.9659 656.6492 283.8135)" style="fill:#E64B78;" width="27.979" height="41.643"/>
<path style="fill:#F98FB0;" d="M347.345,161.547l-55.099,14.764c-6.607,1.77-13.46-2.187-15.23-8.793l-11.996-44.769
	c-1.77-6.606,2.187-13.46,8.793-15.23l55.099-14.764c6.607-1.77,13.46,2.187,15.23,8.793l11.996,44.769
	C357.909,152.923,353.952,159.777,347.345,161.547z"/>
<path style="fill:#FA6487;" d="M316.577,156.917l-11.996-44.769c-1.77-6.606,2.187-13.46,8.793-15.23l-39.561,10.6
	c-6.607,1.77-10.564,8.624-8.793,15.23l11.996,44.769c1.77,6.606,8.624,10.563,15.23,8.793l39.561-10.6
	C325.201,167.481,318.347,163.524,316.577,156.917z"/>
<path style="fill:#28B49B;" d="M451.708,361.756c-8.476-21.08-23.77-36.514-42.678-45.436c-0.001-0.001-0.003-0.001-0.004-0.002
	l-92.811,24.869c-14.243,20.534-18.735,45.956-12.339,69.829l24.291,90.654c55.334-16.228,102.89-50.634,135.764-96.323
	C454.68,370.823,453.991,367.577,451.708,361.756z"/>
<g>
	<path style="fill:#1EA087;" d="M328.167,501.669c8.947-2.624,17.687-5.73,26.199-9.276
		c-26.935-97.958-30.539-110.46-15.693-140.509c5.264-10.673,8.436-12.555,12.15-19.97l-34.607,9.273
		c-14.309,20.67-18.719,46.017-12.339,69.829L328.167,501.669z"/>
	<path style="fill:#1EA087;" d="M308.443,428.061l19.723,73.608c55.334-16.228,102.89-50.634,135.764-96.323
		c-1.121-4.182-3.622-13.517-4.737-17.679C412.266,360.442,335.474,381.015,308.443,428.061z"/>
</g>
<path style="fill:#198773;" d="M354.62,492.285c-22.6-84.301-22.667-83.96-23.617-89.853c-9.533,7.586-17.212,16.322-22.56,25.629
	l19.723,73.608C337.203,499.019,346.028,495.875,354.62,492.285z"/>
<path style="fill:#C3F1FC;" d="M374.186,426.494c-16.417,16.417-6.976,44.246,15.464,47.859
	c11.433-7.012,22.273-14.894,32.426-23.558C426.21,423.974,393.522,407.159,374.186,426.494z"/>
<path style="fill:#A5E5F9;" d="M389.648,474.353c0.001,0,0.002,0,0.002,0.001c9.771-5.993,19.105-12.626,27.952-19.836
	c-19.856,2.445-35.929-15.921-30.749-35.332c-0.283,0.146-5.868,1.227-11.401,6.125
	C357.685,441.048,366.079,470.557,389.648,474.353z"/>
<path style="fill:#505E93;" d="M364.404,227.305l-8.821-32.919l-54.053,14.483l8.82,32.919l22.622,4.971
	c5.115,1.124,10.458-0.307,14.326-3.838L364.404,227.305z"/>
<path style="fill:#474F70;" d="M301.531,208.869l8.82,32.919l22.622,4.971c2.558,0.562,5.172,0.485,7.631-0.173l-12.046-44.958
	L301.531,208.869z"/>
<path style="fill:#FDD36E;" d="M186.513,298.345l15.362-57.332l-54.071-14.488l-15.362,57.332
	c-3.803,14.187-14.016,25.643-27.465,31.548c-23.572,10.355-41.023,30.662-47.603,55.218l-9.304,34.724
	c32.877,45.693,80.44,80.102,135.781,96.328l24.291-90.654c6.579-24.555,1.62-50.868-13.617-71.622
	C185.83,327.561,182.713,312.533,186.513,298.345z"/>
<path style="fill:#FBB659;" d="M69.938,431.795l13.111-48.931c6.579-24.555,24.031-44.863,47.603-55.218
	c13.449-5.905,23.662-17.36,27.465-31.548l16.987-62.259l-27.3-7.315l-15.362,57.332c-3.803,14.187-14.016,25.643-27.465,31.548
	c-23.572,10.355-41.023,30.662-47.603,55.218l-9.304,34.724C58.424,419.736,67.151,428.642,69.938,431.795z"/>
<rect x="160.847" y="160.683" transform="matrix(-0.9659 -0.2588 0.2588 -0.9659 324.2435 405.6939)" style="fill:#FA6487;" width="55.958" height="41.643"/>
<path style="fill:#E64B78;" d="M183.863,201.74l10.962-40.175c-6.149-1.648,4.336,1.162-27.63-7.404l-10.778,40.225L183.863,201.74z
	"/>
<path style="fill:#F98FB0;" d="M164.655,161.547l55.099,14.764c6.606,1.77,13.46-2.187,15.23-8.793l11.996-44.769
	c1.77-6.606-2.187-13.46-8.793-15.23l-55.099-14.764c-6.606-1.77-13.46,2.187-15.23,8.793l-11.996,44.769
	C154.091,152.923,158.048,159.777,164.655,161.547z"/>
<path style="fill:#FA6487;" d="M195.414,156.948l12.013-44.831c1.688-6.3,7.992-10.182,14.303-9.009l-38.642-10.354
	c-6.606-1.77-13.46,2.187-15.23,8.793l-11.996,44.769c-1.77,6.606,2.187,13.46,8.793,15.23l38.642,10.354
	C197.245,169.762,193.726,163.248,195.414,156.948z"/>
<path style="fill:#28B49B;" d="M195.785,341.187l-92.811-24.869c-0.941,0.758-31.882,12.818-44.268,49.84
	c-1.313,3.995-2.536,8.959-10.636,39.189c32.874,45.689,80.43,80.094,135.764,96.323l24.291-90.654
	C214.375,387.686,210.354,362.191,195.785,341.187z"/>
<g>
	<path style="fill:#1EA087;" d="M69.938,431.795l13.111-48.931c11.28-42.098,46.363-54.137,52.641-57.78l-32.715-8.766l0,0
		c-0.909,0.729-31.763,12.445-44.267,49.838c-1.525,4.637-2.593,9.466-10.637,39.19C54.766,414.653,62.081,423.483,69.938,431.795z"
		/>
	<path style="fill:#1EA087;" d="M203.557,428.061c-27.028-47.041-103.818-67.621-150.75-40.393
		c-1.115,4.162-3.617,13.497-4.737,17.679c32.874,45.689,80.43,80.094,135.764,96.323L203.557,428.061z"/>
</g>
<path style="fill:#198773;" d="M48.07,405.347c6.696,9.307,14.012,18.136,21.868,26.448c13.668-50.684,13.079-49.549,14.997-55.007
	c-11.961,1.816-22.902,5.527-32.129,10.88L48.07,405.347z"/>
<path style="fill:#505E93;" d="M147.595,227.305l8.821-32.919l54.053,14.483l-8.82,32.919l-22.622,4.971
	c-5.115,1.124-10.458-0.307-14.326-3.838L147.595,227.305z"/>
<path style="fill:#474F70;" d="M156.416,194.386l-8.821,32.919c16.28,14.167,17.512,17.685,24.017,19.333l12.25-44.897
	L156.416,194.386z"/>
<path style="fill:#C3F1FC;" d="M89.923,450.795c10.154,8.664,20.994,16.546,32.427,23.558c22.387-3.603,31.923-31.4,15.464-47.859
	C118.518,407.198,85.779,423.904,89.923,450.795z"/>
<path style="fill:#A5E5F9;" d="M110.528,419.185c-13.764,3.673-22.831,17.169-20.605,31.61
	c10.154,8.664,20.994,16.546,32.427,23.558c11.067-1.781,19.926-9.908,22.773-20.574
	C124.109,459.387,104.923,440.189,110.528,419.185z"/>
<g>
	<path style="fill:#FDD36E;" d="M255.658,56.653c-4.142-0.05-7.459-3.448-7.409-7.59l0.502-41.653
		c0.05-4.142,3.448-7.459,7.59-7.409c4.142,0.05,7.459,3.448,7.409,7.59l-0.502,41.653
		C263.198,53.387,259.801,56.703,255.658,56.653z"/>
	<path style="fill:#FDD36E;" d="M197.617,71.529c-3.612,2.028-8.183,0.744-10.211-2.869l-20.391-36.323
		c-2.028-3.612-0.744-8.183,2.869-10.211c3.612-2.028,8.184-0.743,10.211,2.868l20.391,36.324
		C202.513,64.93,201.229,69.501,197.617,71.529z"/>
	<path style="fill:#FDD36E;" d="M314.383,71.529c3.612,2.028,8.183,0.744,10.211-2.869l20.391-36.323
		c2.028-3.612,0.744-8.183-2.868-10.211s-8.184-0.743-10.211,2.868l-20.391,36.324C309.487,64.93,310.771,69.501,314.383,71.529z"/>
</g>
<g>
</g>
<g>
</g>
<g>
</g>
<g>
</g>
<g>
</g>
<g>
</g>
<g>
</g>
<g>
</g>
<g>
</g>
<g>
</g>
<g>
</g>
<g>
</g>
<g>
</g>
<g>
</g>
<g>
</g>
</svg>
