<?xml version="1.0" encoding="iso-8859-1"?>
<!-- Generator: Adobe Illustrator 19.0.0, SVG Export Plug-In . SVG Version: 6.00 Build 0)  -->
<svg version="1.1" id="Capa_1" xmlns="http://www.w3.org/2000/svg" xmlns:xlink="http://www.w3.org/1999/xlink" x="0px" y="0px"
	 viewBox="0 0 512 512" style="enable-background:new 0 0 512 512;" xml:space="preserve">
<circle style="fill:#FDD36E;" cx="256" cy="255.988" r="255.988"/>
<path style="fill:#E8F7F9;" d="M484.804,89.56c0-7.072-5.786-12.857-12.857-12.857H41.243c-7.072,0-12.857,5.786-12.857,12.857
	v283.663c31.339,60.721,86.258,107.285,152.651,127.589l197.197-19.851c45.78-24.926,83.094-63.422,106.57-110.081
	C484.804,254.178,484.804,100.083,484.804,89.56z"/>
<path style="fill:#C3F1FC;" d="M82.483,444.174V89.56c0-7.072,5.786-12.857,12.857-12.857H41.243
	c-7.072,0-12.857,5.786-12.857,12.857v283.663C42.187,399.965,60.567,423.957,82.483,444.174z"/>
<path style="fill:#FA6487;" d="M471.946,71.703H41.243c-7.072,0-12.857,5.786-12.857,12.857c0,11.92,0,65.773,0,78.35h456.418
	c0-11.92,0-65.773,0-78.35C484.804,77.489,479.018,71.703,471.946,71.703z"/>
<path style="fill:#E64B78;" d="M95.573,71.703H41.243c-7.072,0-12.857,5.786-12.857,12.857c0,11.92,0,65.773,0,78.35h54.331
	c0-12.577,0-66.431,0-78.35C82.716,77.489,88.502,71.703,95.573,71.703z"/>
<path style="fill:#C3F1FC;" d="M117.698,471.432c84.514,54.367,193.882,54.211,278.427-1.198
	C106.91,470.683,122.527,469.151,117.698,471.432z"/>
<path style="fill:#A5E5F9;" d="M117.698,471.432c11.747,7.557,24.157,14.169,37.116,19.752c1.225-2.992,2.2-6.151,2.883-9.443
	c1.392-6.703,6.42-11.508,12.33-11.508C121.621,470.645,122.18,469.315,117.698,471.432z"/>
<path style="fill:#505E93;" d="M96.135,21.525c-7.456,0-13.499,6.044-13.499,13.499c0,31.06,0,42.093,0,73.304
	c0,7.456,6.044,13.499,13.499,13.499s13.499-6.044,13.499-13.499c0-31.06,0-42.093,0-73.304
	C109.635,27.569,103.591,21.525,96.135,21.525z"/>
<path style="fill:#474F70;" d="M96.135,77.83c-7.456,0-13.499-6.044-13.499-13.499c0,13.264,0,24.826,0,43.998
	c0,7.456,6.044,13.499,13.499,13.499s13.499-6.044,13.499-13.499c0-19.131,0-30.668,0-43.998
	C109.635,71.785,103.591,77.83,96.135,77.83z"/>
<path style="fill:#505E93;" d="M174.758,21.525c-7.456,0-13.499,6.044-13.499,13.499c0,31.06,0,42.093,0,73.304
	c0,7.456,6.044,13.499,13.499,13.499s13.499-6.044,13.499-13.499c0-31.06,0-42.093,0-73.304
	C188.257,27.569,182.213,21.525,174.758,21.525z"/>
<path style="fill:#474F70;" d="M174.758,77.83c-7.456,0-13.499-6.044-13.499-13.499c0,13.264,0,24.826,0,43.998
	c0,7.456,6.044,13.499,13.499,13.499s13.499-6.044,13.499-13.499c0-19.131,0-30.668,0-43.998
	C188.257,71.785,182.213,77.83,174.758,77.83z"/>
<path style="fill:#505E93;" d="M332.002,21.525c-7.456,0-13.499,6.044-13.499,13.499c0,31.06,0,42.093,0,73.304
	c0,7.456,6.044,13.499,13.499,13.499s13.499-6.044,13.499-13.499c0-31.06,0-42.093,0-73.304
	C345.501,27.569,339.457,21.525,332.002,21.525z"/>
<path style="fill:#474F70;" d="M332.002,77.83c-7.456,0-13.499-6.044-13.499-13.499c0,13.264,0,24.826,0,43.998
	c0,7.456,6.044,13.499,13.499,13.499s13.499-6.044,13.499-13.499c0-19.131,0-30.668,0-43.998
	C345.501,71.785,339.457,77.83,332.002,77.83z"/>
<path style="fill:#505E93;" d="M253.38,21.525c-7.456,0-13.499,6.044-13.499,13.499c0,31.06,0,42.093,0,73.304
	c0,7.456,6.044,13.499,13.499,13.499c7.456,0,13.499-6.044,13.499-13.499c0-31.06,0-42.093,0-73.304
	C266.88,27.569,260.836,21.525,253.38,21.525z"/>
<path style="fill:#474F70;" d="M253.38,77.83c-7.456,0-13.499-6.044-13.499-13.499c0,13.264,0,24.826,0,43.998
	c0,7.456,6.044,13.499,13.499,13.499c7.456,0,13.499-6.044,13.499-13.499c0-19.131,0-30.668,0-43.998
	C266.88,71.785,260.836,77.83,253.38,77.83z"/>
<path style="fill:#505E93;" d="M410.624,21.525c-7.456,0-13.499,6.044-13.499,13.499c0,31.06,0,42.093,0,73.304
	c0,7.456,6.044,13.499,13.499,13.499s13.499-6.044,13.499-13.499c0-31.06,0-42.093,0-73.304
	C424.123,27.569,418.08,21.525,410.624,21.525z"/>
<path style="fill:#474F70;" d="M410.624,77.83c-7.456,0-13.499-6.044-13.499-13.499c0,13.264,0,24.826,0,43.998
	c0,7.456,6.044,13.499,13.499,13.499s13.499-6.044,13.499-13.499c0-19.131,0-30.668,0-43.998
	C424.123,71.785,418.08,77.83,410.624,77.83z"/>
<g>
	<path style="fill:#C3F1FC;" d="M253.38,242.848l39.454-32.205c14.768-12.054,35.23-2.183,38.472,18.56l2.132,13.644H253.38z"/>
	<path style="fill:#C3F1FC;" d="M253.38,242.848l-39.454-32.205c-14.768-12.054-35.23-2.183-38.472,18.56l-2.132,13.644H253.38z"/>
</g>
<g>
	<path style="fill:#A5E5F9;" d="M309.449,207.236L309.449,207.236c0.589-0.481,1.186-0.932,1.788-1.358
		c-6.101-1.272-12.678,0.094-18.402,4.766l-39.454,32.205h56.446C299.254,234.539,297.186,217.244,309.449,207.236z"/>
	<path style="fill:#A5E5F9;" d="M217.056,213.199l-3.13-2.555c-14.768-12.054-35.23-2.183-38.472,18.56l-2.132,13.644h32.029
		C205.949,240.005,203.39,222.816,217.056,213.199z"/>
</g>
<path style="fill:#F98FB0;" d="M140.497,284.913v113.045c0,5.263,4.266,9.529,9.529,9.529h206.709c5.263,0,9.529-4.266,9.529-9.529
	V284.913c0-5.263-4.266-9.529-9.529-9.529H150.026C144.763,275.385,140.497,279.651,140.497,284.913z"/>
<g>
	<path style="fill:#FA6487;" d="M147.243,282.82h-6.508c-0.151,0.674-0.238,1.373-0.238,2.094v113.045
		c0,5.263,4.266,9.529,9.529,9.529h39.499V282.82C180.499,282.82,156.01,282.82,147.243,282.82z"/>
	<path style="fill:#FA6487;" d="M366.678,240.054c-9.501,0-214.955,0-226.596,0c-3.741,0-6.774,3.033-6.774,6.774v29.219
		c0,3.741,3.033,6.774,6.774,6.774c11.611,0,216.901,0,226.596,0c3.741,0,6.774-3.033,6.774-6.774v-29.219
		C373.452,243.087,370.419,240.054,366.678,240.054z"/>
</g>
<path style="fill:#E64B78;" d="M182.335,276.047v-29.219c0-3.741,3.033-6.774,6.774-6.774c-6.971,0-44.48,0-49.028,0
	c-3.741,0-6.774,3.033-6.774,6.774v29.219c0,3.741,3.033,6.774,6.774,6.774c4.548,0,42.057,0,49.028,0
	C185.368,282.82,182.335,279.787,182.335,276.047z"/>
<path style="fill:#E8F7F9;" d="M267.988,236.074h-29.218c-3.741,0-6.774,3.033-6.774,6.774c0,6.422,0,84.265,0,164.639h42.766
	c0-80.376,0-158.222,0-164.639C274.763,239.107,271.73,236.074,267.988,236.074z"/>
<g>
	<path style="fill:#C3F1FC;" d="M231.997,407.488h21.383c0-80.376,0-158.222,0-164.639c0-3.741,3.033-6.774,6.774-6.774h-21.383
		c-1.169,0-2.269,0.296-3.229,0.818c-0.576,0.313-1.101,0.707-1.561,1.167c-1.226,1.226-1.984,2.919-1.984,4.79
		C231.997,249.27,231.997,327.113,231.997,407.488z"/>
	<path style="fill:#C3F1FC;" d="M226.504,240.054h53.751c-2.743-12.319-13.729-21.532-26.875-21.532
		C240.235,218.521,229.247,227.735,226.504,240.054z"/>
</g>
<path style="fill:#A5E5F9;" d="M266.818,222.022c-15.96-8.947-36.297-0.006-40.312,18.032h26.875
	C255.104,232.309,260.088,225.794,266.818,222.022z"/>
<g>
</g>
<g>
</g>
<g>
</g>
<g>
</g>
<g>
</g>
<g>
</g>
<g>
</g>
<g>
</g>
<g>
</g>
<g>
</g>
<g>
</g>
<g>
</g>
<g>
</g>
<g>
</g>
<g>
</g>
</svg>
